<svg width="147" height="38" viewBox="0 0 147 38" fill="none" xmlns="http://www.w3.org/2000/svg">
<path d="M23.8363 0.000613888C23.8363 0.000613888 20.6796 -0.254849 16.3635 9.65687C16.3635 9.65687 12.8549 19.4409 -0.000149528 17.2669C-0.000149528 17.2669 4.25163 13.9421 6.31317 6.90814C8.37472 -0.127118 11.0797 0.000613331 11.0797 0.000613331L23.8363 0.000613888Z" fill="#FFFCFF"/>
<path d="M23.8365 37.9995C23.8365 37.9995 20.6799 38.255 16.3638 28.3433C16.3638 28.3433 12.8551 18.5593 9.53536e-05 20.7332C9.53536e-05 20.7332 4.25187 24.058 6.31342 31.092C8.37496 38.126 11.0812 37.9983 11.0812 37.9983L23.8365 37.9983L23.8365 37.9995Z" fill="#FFFCFF"/>
<path d="M38.6364 25.0725H36.6453L31.3707 19.2164V25.0725H29.7463V12.8722H31.3707V18.3798L36.4707 12.8722H38.4618L33.0648 18.7981L38.6364 25.0725ZM46.3716 16.358H47.8911V25.0725H46.3716V23.5736C45.6147 24.7239 44.5144 25.2991 43.0706 25.2991C41.8479 25.2991 40.8058 24.8576 39.9442 23.9745C39.0825 23.0798 38.6517 21.9934 38.6517 20.7152C38.6517 19.4371 39.0825 18.3565 39.9442 17.4734C40.8058 16.5788 41.8479 16.1314 43.0706 16.1314C44.5144 16.1314 45.6147 16.7066 46.3716 17.8569V16.358ZM43.2627 23.835C44.1476 23.835 44.887 23.5388 45.4808 22.9462C46.0747 22.342 46.3716 21.5983 46.3716 20.7152C46.3716 19.8322 46.0747 19.0943 45.4808 18.5018C44.887 17.8976 44.1476 17.5954 43.2627 17.5954C42.3894 17.5954 41.6558 17.8976 41.062 18.5018C40.4681 19.0943 40.1712 19.8322 40.1712 20.7152C40.1712 21.5983 40.4681 22.342 41.062 22.9462C41.6558 23.5388 42.3894 23.835 43.2627 23.835ZM51.9574 23.6259H56.6033V25.0725H49.8789V24.0616L54.3327 17.8046H50.0536V16.358H56.4286V17.3689L51.9574 23.6259ZM62.519 25.2991C61.3779 25.2991 60.3998 25.0318 59.5848 24.4974C58.7813 23.9629 58.2166 23.2308 57.8906 22.3013L59.2878 21.4996C59.7652 22.9752 60.8539 23.713 62.5539 23.713C63.3923 23.713 64.0327 23.5446 64.4752 23.2076C64.9177 22.859 65.1389 22.4001 65.1389 21.8307C65.1389 21.2497 64.9177 20.814 64.4752 20.5235C64.0327 20.233 63.2933 19.9251 62.257 19.5998C61.7447 19.4371 61.3546 19.3093 61.0868 19.2164C60.819 19.1118 60.4813 18.9607 60.0738 18.7632C59.6779 18.554 59.381 18.3449 59.183 18.1357C58.9851 17.915 58.8046 17.6303 58.6416 17.2817C58.4902 16.9331 58.4146 16.5381 58.4146 16.0966C58.4146 15.0392 58.7872 14.2026 59.5324 13.5868C60.2776 12.9593 61.1858 12.6456 62.257 12.6456C63.2235 12.6456 64.0618 12.8896 64.7721 13.3776C65.494 13.8656 66.0355 14.5105 66.3964 15.3122L65.0341 16.0966C64.5101 14.8417 63.5844 14.2142 62.257 14.2142C61.5933 14.2142 61.0577 14.3769 60.6502 14.7022C60.2426 15.0276 60.0389 15.4691 60.0389 16.0268C60.0389 16.5613 60.231 16.968 60.6152 17.2469C60.9995 17.5257 61.6632 17.8162 62.6063 18.1183C62.944 18.2229 63.1827 18.2984 63.3224 18.3449C63.4622 18.3914 63.6776 18.4727 63.9687 18.5889C64.2714 18.7051 64.4927 18.7981 64.6324 18.8678C64.7721 18.9375 64.9584 19.0363 65.1913 19.1641C65.4358 19.2919 65.6163 19.4139 65.7327 19.5301C65.8492 19.6463 65.9831 19.7915 66.1344 19.9658C66.2974 20.1285 66.4138 20.297 66.4837 20.4712C66.5535 20.6455 66.6118 20.8489 66.6583 21.0813C66.7166 21.302 66.7457 21.5402 66.7457 21.7958C66.7457 22.8648 66.3556 23.7189 65.5755 24.3579C64.7954 24.9854 63.7766 25.2991 62.519 25.2991ZM74.5376 16.358H76.0571V25.0725H74.5376V23.8176C73.9205 24.8053 72.9773 25.2991 71.7081 25.2991C70.6835 25.2991 69.8626 24.9796 69.2455 24.3405C68.6283 23.6898 68.3198 22.8125 68.3198 21.7087V16.358H69.8393V21.6216C69.8393 22.3303 70.0314 22.8823 70.4157 23.2773C70.7999 23.6608 71.3297 23.8525 72.0051 23.8525C72.7619 23.8525 73.3732 23.6201 73.839 23.1553C74.3047 22.6789 74.5376 21.9527 74.5376 20.9767V16.358ZM79.6635 18.7109C79.6635 19.0479 79.8323 19.3209 80.17 19.5301C80.5076 19.7276 80.9152 19.8903 81.3926 20.0181C81.87 20.1343 82.3474 20.2737 82.8248 20.4364C83.3022 20.5874 83.7097 20.8547 84.0474 21.2381C84.385 21.6099 84.5539 22.0921 84.5539 22.6847C84.5539 23.4748 84.2453 24.1081 83.6282 24.5845C83.0227 25.0609 82.2426 25.2991 81.2878 25.2991C80.4378 25.2991 79.71 25.1132 79.1045 24.7414C78.4991 24.3695 78.0682 23.8757 77.8121 23.2599L79.122 22.5104C79.2617 22.9287 79.5237 23.2599 79.908 23.5039C80.2922 23.7479 80.7521 23.8699 81.2878 23.8699C81.7885 23.8699 82.2018 23.7769 82.5278 23.591C82.8539 23.3935 83.0169 23.0914 83.0169 22.6847C83.0169 22.3478 82.848 22.0805 82.5104 21.883C82.1727 21.6738 81.7652 21.5112 81.2878 21.395C80.8104 21.2672 80.333 21.1219 79.8556 20.9593C79.3782 20.7966 78.9706 20.5293 78.633 20.1575C78.2953 19.7857 78.1265 19.3093 78.1265 18.7283C78.1265 17.9731 78.4176 17.3514 78.9997 16.8634C79.5936 16.3754 80.333 16.1314 81.2179 16.1314C81.9282 16.1314 82.5569 16.2941 83.1042 16.6194C83.6631 16.9331 84.0823 17.3747 84.3617 17.944L83.0867 18.6586C82.7724 17.915 82.1494 17.5432 81.2179 17.5432C80.7871 17.5432 80.4203 17.6477 80.1176 17.8569C79.8148 18.0544 79.6635 18.3391 79.6635 18.7109ZM90.7626 17.822H88.4397V22.5453C88.4397 22.9752 88.5212 23.2831 88.6842 23.469C88.8588 23.6433 89.1208 23.7363 89.4701 23.7479C89.8195 23.7479 90.2503 23.7363 90.7626 23.713V25.0725C89.4352 25.2468 88.4629 25.1422 87.8458 24.7588C87.2287 24.3637 86.9201 23.6259 86.9201 22.5453V17.822H85.191V16.358H86.9201V14.3711L88.4397 13.9179V16.358H90.7626V17.822ZM99.3489 16.358H100.868V25.0725H99.3489V23.5736C98.592 24.7239 97.4917 25.2991 96.0478 25.2991C94.8252 25.2991 93.7831 24.8576 92.9214 23.9745C92.0598 23.0798 91.629 21.9934 91.629 20.7152C91.629 19.4371 92.0598 18.3565 92.9214 17.4734C93.7831 16.5788 94.8252 16.1314 96.0478 16.1314C97.4917 16.1314 98.592 16.7066 99.3489 17.8569V16.358ZM96.24 23.835C97.1249 23.835 97.8643 23.5388 98.4581 22.9462C99.0519 22.342 99.3489 21.5983 99.3489 20.7152C99.3489 19.8322 99.0519 19.0943 98.4581 18.5018C97.8643 17.8976 97.1249 17.5954 96.24 17.5954C95.3667 17.5954 94.6331 17.8976 94.0393 18.5018C93.4454 19.0943 93.1485 19.8322 93.1485 20.7152C93.1485 21.5983 93.4454 22.342 94.0393 22.9462C94.6331 23.5388 95.3667 23.835 96.24 23.835ZM103.939 14.7719C103.648 14.7719 103.403 14.6732 103.206 14.4757C103.008 14.2781 102.909 14.0399 102.909 13.7611C102.909 13.4822 103.008 13.244 103.206 13.0465C103.403 12.8373 103.648 12.7327 103.939 12.7327C104.219 12.7327 104.457 12.8373 104.655 13.0465C104.853 13.244 104.952 13.4822 104.952 13.7611C104.952 14.0399 104.853 14.2781 104.655 14.4757C104.457 14.6732 104.219 14.7719 103.939 14.7719ZM103.171 25.0725V16.358H104.69V25.0725H103.171ZM111.357 16.1314C112.382 16.1314 113.203 16.4568 113.82 17.1074C114.437 17.7465 114.746 18.618 114.746 19.7218V25.0725H113.226V19.8089C113.226 19.1002 113.034 18.554 112.65 18.1706C112.266 17.7755 111.736 17.578 111.06 17.578C110.304 17.578 109.692 17.8162 109.227 18.2926C108.761 18.7574 108.528 19.4778 108.528 20.4538V25.0725H107.008V16.358H108.528V17.6129C109.145 16.6252 110.088 16.1314 111.357 16.1314ZM121.792 12.8722C123.458 12.8722 124.837 13.4648 125.932 14.6499C127.038 15.8235 127.591 17.2643 127.591 18.9723C127.591 20.6804 127.038 22.127 125.932 23.3122C124.837 24.4857 123.458 25.0725 121.792 25.0725H117.024V12.8722H121.792ZM121.792 23.5388C123.038 23.5388 124.057 23.103 124.849 22.2316C125.641 21.3601 126.037 20.2737 126.037 18.9723C126.037 17.671 125.641 16.5846 124.849 15.7131C124.057 14.8417 123.038 14.4059 121.792 14.4059H118.649V23.5388H121.792ZM130.469 21.4124C130.62 22.1909 130.975 22.7951 131.534 23.225C132.105 23.6549 132.804 23.8699 133.63 23.8699C134.783 23.8699 135.621 23.4458 136.145 22.5976L137.438 23.3296C136.588 24.6426 135.307 25.2991 133.595 25.2991C132.21 25.2991 131.08 24.8692 130.207 24.0093C129.345 23.1379 128.914 22.0399 128.914 20.7152C128.914 19.4023 129.339 18.31 130.189 17.4386C131.039 16.5671 132.14 16.1314 133.491 16.1314C134.771 16.1314 135.813 16.5846 136.617 17.4909C137.432 18.3856 137.839 19.4662 137.839 20.7327C137.839 20.9534 137.822 21.18 137.787 21.4124H130.469ZM133.491 17.5606C132.675 17.5606 132 17.793 131.464 18.2578C130.929 18.7109 130.597 19.3209 130.469 20.0878H136.303C136.174 19.2628 135.848 18.6354 135.324 18.2055C134.8 17.7755 134.189 17.5606 133.491 17.5606ZM145.358 16.358H147L143.507 25.0725H141.725L138.232 16.358H139.874L142.616 23.4516L145.358 16.358Z" fill="#FFFCFF"/>
</svg>
